<?xml version="1.0" standalone="no"?>
<!DOCTYPE svg PUBLIC "-//W3C//DTD SVG 20010904//EN"
 "http://www.w3.org/TR/2001/REC-SVG-20010904/DTD/svg10.dtd">
<svg version="1.0" xmlns="http://www.w3.org/2000/svg"
 width="256.000000pt" height="256.000000pt" viewBox="0 0 256.000000 256.000000"
 preserveAspectRatio="xMidYMid meet">
<metadata>
Created by potrace 1.11, written by Peter Selinger 2001-2013
</metadata>
<g transform="translate(0.000000,256.000000) scale(0.100000,-0.100000)"
fill="#000000" stroke="none">
<path d="M1274 2468 c-17 -4 -52 -26 -77 -48 -55 -49 -91 -53 -162 -19 -90 44
-167 20 -217 -68 -42 -75 -66 -88 -148 -85 -77 3 -108 -6 -144 -45 -29 -31
-43 -68 -49 -126 -6 -52 -29 -74 -103 -96 -100 -30 -141 -85 -129 -175 3 -28
7 -62 9 -76 4 -36 -19 -71 -69 -103 -25 -16 -50 -43 -61 -65 -21 -44 -23 -125
-3 -144 8 -8 23 -30 33 -50 22 -41 16 -97 -13 -126 -72 -69 -58 -189 29 -250
56 -39 66 -69 49 -140 -16 -66 -15 -102 6 -142 18 -35 75 -80 101 -80 28 0 69
-25 66 -39 -1 -7 2 -10 8 -6 13 8 30 -37 30 -82 0 -53 35 -118 70 -133 17 -7
30 -16 30 -20 0 -4 10 -6 22 -6 13 1 28 -2 35 -6 6 -5 14 -5 17 1 4 5 23 7 43
5 41 -5 93 -47 93 -74 0 -9 5 -21 12 -28 7 -7 9 -12 4 -12 -7 0 21 -27 61 -60
26 -22 105 -25 142 -5 17 9 37 13 43 9 7 -5 8 -3 3 6 -6 10 1 12 36 7 32 -4
51 -14 72 -37 15 -17 25 -36 21 -42 -4 -7 -3 -8 5 -4 6 4 24 0 38 -9 50 -33
135 -20 179 26 57 60 100 68 166 31 25 -14 52 -20 91 -19 67 2 101 24 136 88
28 50 38 62 66 76 21 11 70 12 80 1 3 -3 20 -2 38 2 47 10 46 10 55 10 14 0
67 53 79 80 12 23 20 62 22 100 1 21 47 72 63 69 14 -2 32 4 93 32 31 14 45
30 62 66 21 47 22 58 7 135 -10 58 2 84 60 127 29 22 60 55 69 74 29 60 24 92
-32 197 -23 44 -19 71 22 128 28 38 32 52 32 106 0 69 -18 101 -80 143 -45 31
-62 89 -40 133 17 33 13 107 -8 146 -17 33 -71 71 -111 78 -59 11 -85 45 -91
120 -8 109 -72 167 -181 165 -78 -2 -101 11 -129 74 -23 53 -54 88 -90 102
-46 17 -94 16 -137 -3 -64 -28 -102 -22 -152 26 -64 62 -108 77 -172 60z"/>
</g>
</svg>
